<svg xmlns="http://www.w3.org/2000/svg" viewBox="0 0 389.64 247.92"><defs><style>.cls-1{fill:#231f20;}.cls-2{fill:#fff;}.cls-3{fill:#ec1c24;}</style></defs><title>japeat</title><g id="Layer_1" data-name="Layer 1"><path class="cls-1" d="M107.21,186a81.59,81.59,0,0,1-4.35,25.89,65.3,65.3,0,0,1-12.43,22.4A61.82,61.82,0,0,1,69,250.25Q56.5,256,40.34,256q-15,0-23.18-5.79A18.21,18.21,0,0,1,9,234.56a24.7,24.7,0,0,1,.81-6.47,17.35,17.35,0,0,1,3.42-6.22,15.38,15.38,0,0,1,6.16-4.67,22.1,22.1,0,0,1,9.4-1.93q10.33,0,15.93,7.41t11.45,22.22q5.1-2.86,7.53-12.2t2.43-40.57v-86a15.28,15.28,0,0,0-1.87-7.65,16.69,16.69,0,0,0-5.1-5.54,26.54,26.54,0,0,0-7.53-3,53.63,53.63,0,0,0-9.15-1.8V79l62.86-3.24,1.86,1.87Z" transform="translate(-9.01 -8.05)"/><path class="cls-1" d="M149.81,238.07l-.46.4a6.63,6.63,0,0,1-.2,2.43l-1.38-.36a13.57,13.57,0,0,0-1.51-.3,6.79,6.79,0,0,0-1.48.23,6.69,6.69,0,0,1-1.48.23,3,3,0,0,1-1-.23,3,3,0,0,0-1-.23,8.28,8.28,0,0,0-2.46.56,8.27,8.27,0,0,1-2.46.56,6.65,6.65,0,0,1-1.48-.23,6.8,6.8,0,0,0-1.48-.23,31,31,0,0,0-5,.66l-.72.66a11.55,11.55,0,0,0,3.41,6.37,9.19,9.19,0,0,0,6.57,2.89q3,0,9.06-5.32h1.71l.46,1.71q-.85,3-4.73,5.12a17.06,17.06,0,0,1-7,2l-2-1.18h-3.48l-4.2-3.81V248.9l-2.36-2.43-1.18-6.63-.72-.72a39.18,39.18,0,0,1,2.69-6.7,13.08,13.08,0,0,1,4.86-5.12,6.45,6.45,0,0,1,2.3-1.12l9.85.65q6.83,6.17,6.83,10.57ZM140.69,231l-.59-.46a2.29,2.29,0,0,1-.46-.46,31.77,31.77,0,0,1-5.84.59l-.26.26.07.26q-.66.39-1.71,1.18-1.57,1.18-1.58,4.14,0,1.38,3.41,1.38.59,0,1.84-.13t1.84-.13l.46.26.26-.52.2.26h1.18v-.2a3.6,3.6,0,0,0,.85-.17,3.74,3.74,0,0,1,.92-.17,5.7,5.7,0,0,0,2-.2q.65-.46.66-2.12Q143.9,233.64,140.69,231Z" transform="translate(-9.01 -8.05)"/><path class="cls-1" d="M187,254.94q-.66-.33-1.71-1l-2.56-1.58L179,253.5a29.3,29.3,0,0,1-3.48,1l-4-.07q-1,0-2.46-.1t-3.45-.36l-3.15-3a42.32,42.32,0,0,1-.79-5.78l.07-1.64,2.23-3.35,5.71-1.51a12.48,12.48,0,0,1,1.84-.29,8.59,8.59,0,0,0,2.36-.62l2.33-1a3.82,3.82,0,0,0,1.54-1.08,4.86,4.86,0,0,0,1.58-.3q.85-.29,2-.62l.79-.65.59-.33v-2a15.1,15.1,0,0,0-4.07-2.1,12.85,12.85,0,0,0-4.4-1.25,10.77,10.77,0,0,0-2.63.65,1.89,1.89,0,0,0-.89.72,11.5,11.5,0,0,1-.82,1.05,3.1,3.1,0,0,0,.4,1.67,9.57,9.57,0,0,0,1.31,1.54l-.85.85-1.38.79L167.87,237h-2.1l-1.64-3.48q-.46-1,.46-5.19,4.86-3.08,7.09-3.08a.22.22,0,0,1-.2-.1c0-.07,0-.12.2-.16a4.8,4.8,0,0,1,1-.07,19.38,19.38,0,0,1,2.3.2l3.15.2q1.51.39,3,.82t3.15,1l2.23,2.76.46,7.62q-.13-.72-.2,3.87l-.33.07.46,3.54-.52.92,2.1,2.23,4.07-.46.33,4.6-2.1,2.3Zm-5.52-13.72h-1.84q-.13,0-2.17.59l-2.3.66a14.16,14.16,0,0,1-2.36.13,4.36,4.36,0,0,0-.92-.07q-.66,0-1.77-.07l-3.61,2.17.07,1.51.13,1.84,1.58,2h6.76q.13,0,4.4-1.31l2.3-3.28-.2-1.77Z" transform="translate(-9.01 -8.05)"/><path class="cls-1" d="M228.34,246.61v.72l-2.43,2.82v1.05h-.39l-1.38,2.23-2.89,1.12v.59l-.59.39a31.22,31.22,0,0,0-5.32-.53h-.59a11.52,11.52,0,0,1-4.07-5.91l.66-1.77a24.34,24.34,0,0,1-.85-4.79,44.65,44.65,0,0,1,.53-5.84q.72-4.53.85-6a30,30,0,0,0-3.68-.66q-.72,0-4.86.53l-1.71-.92v-2.3l2.3-1.71,6.7.59,1.25-10.57h3.41l1.51,2.82-1.05,1.12.59,4.66-1.18.85,3,1.77q5.45-.65,5.71-.65a31.41,31.41,0,0,1,3.35.59l.59,1.71-1,1.51h-2.82l-.72-.59-6.37,1.25v1.25l-1.71,1.77,1.25,6.5.46.53-1.58,1.71a10.19,10.19,0,0,1,1.58,5.06l2.63,1.25,1.38-3.09h.46l.46.92,5.12-5h1l1.12,2.1A5.74,5.74,0,0,0,228.34,246.61Z" transform="translate(-9.01 -8.05)"/><path class="cls-1" d="M255.47,198.1a93.88,93.88,0,0,1-12.92,4.36,60.93,60.93,0,0,1-15.77,2q-15.28,0-22.48-4.54a22.76,22.76,0,0,1-9.81-13h-.75a81.81,81.81,0,0,1-8.17,7.22,46.89,46.89,0,0,1-8.42,5.1,63.58,63.58,0,0,1-11.28,4.11,65.06,65.06,0,0,1-15.14,1.37q-14.46,0-24.68-8.54t-10.22-22.62a37.48,37.48,0,0,1,2.24-13.77,31.25,31.25,0,0,1,6.36-10,33.06,33.06,0,0,1,8.66-6.61,96.72,96.72,0,0,1,10.78-4.86q11.22-4.11,26.93-8.54t22.94-7.92V109.86q0-3.11-.5-8.21a26.64,26.64,0,0,0-2.12-8.59,16.45,16.45,0,0,0-5.48-6.72q-3.73-2.74-9.83-2.74a23.55,23.55,0,0,0-9.15,1.56,30.7,30.7,0,0,0-5.91,3.17,48.47,48.47,0,0,0,2.12,7.59,30.31,30.31,0,0,1,1.75,9.83A16.51,16.51,0,0,1,163.5,111a11.78,11.78,0,0,1-3.25,5,21.52,21.52,0,0,1-6.43,3.86q-3.56,1.37-10.92,1.37-10.49,0-15.85-5a17.79,17.79,0,0,1,.17-25.64,45.32,45.32,0,0,1,13.5-9.15,77.48,77.48,0,0,1,18-5.79,96.31,96.31,0,0,1,18.92-2.05,158.45,158.45,0,0,1,22.15,1.43A52.36,52.36,0,0,1,218,81a31.58,31.58,0,0,1,12.26,12.63q4.54,8.28,4.54,21.59,0,14.07-.56,33.35T233.69,174a19.36,19.36,0,0,0,1.68,8.84,10.69,10.69,0,0,0,5.17,4.85,18.33,18.33,0,0,0,6.66,1.18q4.54.19,8.28.19Zm-61.73-64.84q-7,2.37-13.87,5.43a55.32,55.32,0,0,0-11.24,6.43,24.2,24.2,0,0,0-7.24,8.92,29.07,29.07,0,0,0-2.62,12.79q0,9.73,4.43,14.1a15,15,0,0,0,10.93,4.37q6.87,0,11.3-2.81a32.47,32.47,0,0,0,7.81-6.92Z" transform="translate(-9.01 -8.05)"/><path class="cls-1" d="M398.65,140.1q0,26.26-17.53,45.05t-44.37,18.79q-11.93,0-19.39-2.43a44.7,44.7,0,0,1-12.31-5.91h-1v35a14.53,14.53,0,0,0,1.93,7.59,11.35,11.35,0,0,0,5.41,4.73,50.31,50.31,0,0,0,9.52,2.49,89.9,89.9,0,0,0,10.27,1.37V256h-90v-9.21q3.11-.25,7.84-.93a48.59,48.59,0,0,0,7.09-1.43,8.55,8.55,0,0,0,5.41-4.67A18.77,18.77,0,0,0,263,232.2V104.88a20.11,20.11,0,0,0-1.93-7.22,14.94,14.94,0,0,0-4.92-5.48,22.5,22.5,0,0,0-6.6-2.68,51.91,51.91,0,0,0-8.09-1.43V79l60.73-3.24,1.87,1.62V91.19l1,.25a61.57,61.57,0,0,1,18.21-12.94,47.14,47.14,0,0,1,19.83-4.6q25.73,0,40.64,18.23T398.65,140.1Zm-44.68.5a112.89,112.89,0,0,0-1.37-17.86,50.29,50.29,0,0,0-4.84-15.25,28.7,28.7,0,0,0-8.88-10.7,22.42,22.42,0,0,0-13.47-4q-8.07,0-12.91,2.8a30.06,30.06,0,0,0-8.44,7.28v70.57a36.38,36.38,0,0,0,2.85,6.41,32.88,32.88,0,0,0,4.22,6.29,19.64,19.64,0,0,0,7.08,5,22.79,22.79,0,0,0,8.69,1.62q12.29,0,19.68-13.26T354,140.6Z" transform="translate(-9.01 -8.05)"/><path class="cls-2" d="M290.88,103.92c0,3.61.13,5.45.13,6.09a.88.88,0,0,1,0,.29c.19-.25.38-.51.57-.79,2.73,1.62,3.07,1.9,3.07,2.35,0,.29-.25.48-1.4.35a30.85,30.85,0,0,1-6,2.95,9.62,9.62,0,0,0,1.27.67,23.2,23.2,0,0,0,8.88,2c.16,0,.19.32,0,.35a2.49,2.49,0,0,0-2.06,2.12c-.16.57-.41.79-.82.79a6.32,6.32,0,0,1-1.33-.29,28.35,28.35,0,0,1-4.6-2c-3.17-1.87-4.79-3.74-6.91-8.18h-4.25v6.63c2.22-.38,4.6-.92,6.75-1.49.16,0,.25.22.13.32a50.74,50.74,0,0,1-10.91,4.69c-.25.7-.41.89-.73.89s-.73-.79-1.62-3.71c1,0,2.16-.13,3.49-.29v-8.27c0-2.41,0-4.85-.1-7.26a44.38,44.38,0,0,1-5.77,2.6c-.16.06-.32-.32-.19-.41a37.76,37.76,0,0,0,10-8.4,13.2,13.2,0,0,0,2.44-4.34c3.68,1.08,4.28,1.4,4.28,1.78s-.41.54-1.3.63a19.29,19.29,0,0,0,5.71,4.6,27.46,27.46,0,0,0,9,2.76c.16,0,.13.35,0,.38-1,.13-1.49.63-2,2.22-.16.54-.29.7-.57.7a5.1,5.1,0,0,1-1.43-.48c-.86-.41-2-1-3.11-1.71a4.14,4.14,0,0,1-.67.48Zm-3-2.47c.44-.41.76-.67,1-.86a20.43,20.43,0,0,1-5.39-6.21,29,29,0,0,1-7.07,6.56c.32.13.67.29,1.14.51h3.61V100a18.86,18.86,0,0,0-.16-2.31c3.61.32,3.93.6,3.93.89s-.32.51-1,.86v2Zm.13.73H277.41v3.42H288Zm0,4.15H277.41v3.55H288Zm-5.61,4.28a16.18,16.18,0,0,0,4.09,4.09,37.35,37.35,0,0,0,3.36-3c.19-.19.35-.38.51-.57a2.35,2.35,0,0,1-1,.16c-.82,0-1.17-.16-1.3-.63Z" transform="translate(-9.01 -8.05)"/><path class="cls-2" d="M269.61,138.64a1,1,0,0,0,.79.48,2.24,2.24,0,0,0,1.43-.73,17.35,17.35,0,0,0,1.9-1.87c.76-.86,1.3-1.46,2.25-2.47,1.62-1.81,2.54-2.38,3.93-2.38s2.28.54,4.28,2.88a34.25,34.25,0,0,0,5.64,5.52,13.34,13.34,0,0,0,5.33,2.22,3.08,3.08,0,0,1,1.68.6,1.73,1.73,0,0,1,.57,1.33c0,1.08-.67,1.65-2,1.65-2.09,0-4.79-1.24-7-3.3a36.37,36.37,0,0,1-5.83-7.13c-1.27-1.9-1.87-2.41-2.76-2.41s-1.24.22-2.31,1.78a35,35,0,0,0-1.84,3.11,16,16,0,0,1-2,3.14,2.71,2.71,0,0,1-2.22,1.17,2.26,2.26,0,0,1-2.25-2.47,2.54,2.54,0,0,1,.25-1.11A.07.07,0,0,1,269.61,138.64Zm17.12-8.24a6.21,6.21,0,0,1,1.3.13c1.93.35,3.23,1.39,3.23,2.6a1.21,1.21,0,0,1-1.11,1.3c-.41,0-.67-.25-1-1a6.21,6.21,0,0,0-2.41-2.88C286.63,130.46,286.66,130.39,286.73,130.39Zm2.79-2.12a6.9,6.9,0,0,1,.82,0c2.38.1,3.9,1,3.9,2.44a1.06,1.06,0,0,1-1,1.17c-.44,0-.6-.13-1.24-1.08a6.13,6.13,0,0,0-2.54-2.38C289.42,128.37,289.42,128.3,289.52,128.27Z" transform="translate(-9.01 -8.05)"/><path class="cls-2" d="M274.57,153.37a1.44,1.44,0,0,0,1.12.64c.52,0,.88-.2,3.44-1.8,2.24-1.4,3.52-1.92,4.88-1.92a4.09,4.09,0,0,1,4.12,3.88c0,1.52-.72,2.4-3.92,5.43A72.73,72.73,0,0,0,275,170c4.4-3.16,7.35-4.36,10.59-4.36a8.56,8.56,0,0,1,8.67,8.87c0,5.67-4.28,9.51-10.59,9.51-3.48,0-5.68-1.52-5.68-4,0-2.12,1.84-3.68,4.32-3.68s4,1.28,4.64,4.24c2.52-1.2,3.76-3.28,3.76-6.39,0-4.32-2.12-7-5.51-7-2.68,0-6.31,1.88-9.11,4.56a9.07,9.07,0,0,0-2.4,3.52c-.56,1.48-1.08,2-2,2a1.23,1.23,0,0,1-1.24-.84,6.09,6.09,0,0,1-.48-2.4c0-1.28.32-1.76,1.84-3.72,1.36-1.92,2.76-3.76,4.6-6.07,1.56-1.8,3.32-3.88,5-5.84,2.64-3.12,3.56-4.52,3.56-5.39a.69.69,0,0,0-.76-.76c-.52,0-1.08.28-2.08,1.08a19.73,19.73,0,0,0-2.64,2.2c-1,1.08-1.56,1.4-2.44,1.4a3,3,0,0,1-2.88-2.76,1.65,1.65,0,0,1,.16-.84C274.45,153.29,274.49,153.29,274.57,153.37ZM281.37,178a1.8,1.8,0,0,0-2,1.6c0,1.16,1.12,1.88,3,1.88a4.89,4.89,0,0,0,1.48-.2C283.65,179.11,282.81,178,281.37,178Z" transform="translate(-9.01 -8.05)"/></g><g id="reddot"><path class="cls-3" d="M107.71,30.95a21,21,0,0,1-7.28,16.12,25.8,25.8,0,0,1-34.6,0,21,21,0,0,1-7.28-16.12,21.24,21.24,0,0,1,7.28-16.18A24.72,24.72,0,0,1,83.19,8a24.5,24.5,0,0,1,17.3,6.72A21.33,21.33,0,0,1,107.71,30.95Z" transform="translate(-9.01 -8.05)"/></g></svg>